# xmcd
#
# Track frame offsets:
#	150
#	11177
#	22278
#	34429
#	45140
#	55099
#	66823
#	78114
#	90718
#	101729
#	109572
#	120035
#	131483
#	141544
#	155627
#
# Disc length: 2241 seconds
#
# Revision: 0
# Processed by: cddbd v1.5.1PL2 Copyright (c) Steve Scherf et al.
# Submitted via: audiograbber 1.83.01
#
DISCID=c308bf0f
DTITLE=George Jones and Gene Pitney - Feeling Single Seeing Double
DYEAR=1900
DGENRE=Oldies
TTITLE0=I'm A Fool To Care
TTITLE1=Why Baby Why
TTITLE2=I've Got A New Heartache
TTITLE3=Mockingbird Hill
TTITLE4=Feelin' Single, Seein' Double
TTITLE5=She Still Thinks I Care
TTITLE6=Someday You'll Want Me To Want
TTITLE7=Wreck On The Highway
TTITLE8=Born to Lose
TTITLE9=My Shoes Keep Walking Back To You
TTITLE10=One Has My Name
TTITLE11=Y'all Come
TTITLE12=Big Job
TTITLE13=Life To Go
TTITLE14=I can't stop loving you
EXTD=
EXTT0=
EXTT1=
EXTT2=
EXTT3=
EXTT4=
EXTT5=
EXTT6=
EXTT7=
EXTT8=
EXTT9=
EXTT10=
EXTT11=
EXTT12=
EXTT13=
EXTT14=
PLAYORDER=
